<svg width="300" height="50" viewBox="0 0 187 37" fill="none" xmlns="http://www.w3.org/2000/svg">
<path d="M27.8359 24.6328C27.5703 28.3047 26.2109 31.1953 23.7578 33.3047C21.3203 35.4141 18.1016 36.4688 14.1016 36.4688C9.72656 36.4688 6.28125 35 3.76562 32.0625C1.26562 29.1094 0.015625 25.0625 0.015625 19.9219V17.8359C0.015625 14.5547 0.59375 11.6641 1.75 9.16406C2.90625 6.66406 4.55469 4.75 6.69531 3.42188C8.85156 2.07813 11.3516 1.40625 14.1953 1.40625C18.1328 1.40625 21.3047 2.46094 23.7109 4.57031C26.1172 6.67969 27.5078 9.64062 27.8828 13.4531H20.8516C20.6797 11.25 20.0625 9.65625 19 8.67188C17.9531 7.67187 16.3516 7.17188 14.1953 7.17188C11.8516 7.17188 10.0938 8.01562 8.92188 9.70312C7.76562 11.375 7.17188 13.9766 7.14062 17.5078V20.0859C7.14062 23.7734 7.69531 26.4688 8.80469 28.1719C9.92969 29.875 11.6953 30.7266 14.1016 30.7266C16.2734 30.7266 17.8906 30.2344 18.9531 29.25C20.0312 28.25 20.6484 26.7109 20.8047 24.6328H27.8359ZM30.9531 23.0859C30.9531 20.5703 31.4375 18.3281 32.4062 16.3594C33.375 14.3906 34.7656 12.8672 36.5781 11.7891C38.4062 10.7109 40.5234 10.1719 42.9297 10.1719C46.3516 10.1719 49.1406 11.2188 51.2969 13.3125C53.4688 15.4062 54.6797 18.25 54.9297 21.8438L54.9766 23.5781C54.9766 27.4688 53.8906 30.5938 51.7188 32.9531C49.5469 35.2969 46.6328 36.4688 42.9766 36.4688C39.3203 36.4688 36.3984 35.2969 34.2109 32.9531C32.0391 30.6094 30.9531 27.4219 30.9531 23.3906V23.0859ZM37.7266 23.5781C37.7266 25.9844 38.1797 27.8281 39.0859 29.1094C39.9922 30.375 41.2891 31.0078 42.9766 31.0078C44.6172 31.0078 45.8984 30.3828 46.8203 29.1328C47.7422 27.8672 48.2031 25.8516 48.2031 23.0859C48.2031 20.7266 47.7422 18.8984 46.8203 17.6016C45.8984 16.3047 44.6016 15.6562 42.9297 15.6562C41.2734 15.6562 39.9922 16.3047 39.0859 17.6016C38.1797 18.8828 37.7266 20.875 37.7266 23.5781ZM58.0938 23.1328C58.0938 19.1797 58.9766 16.0312 60.7422 13.6875C62.5234 11.3438 64.9531 10.1719 68.0312 10.1719C70.5 10.1719 72.5391 11.0938 74.1484 12.9375V0H80.9453V36H74.8281L74.5 33.3047C72.8125 35.4141 70.6406 36.4688 67.9844 36.4688C65 36.4688 62.6016 35.2969 60.7891 32.9531C58.9922 30.5938 58.0938 27.3203 58.0938 23.1328ZM64.8672 23.625C64.8672 26 65.2812 27.8203 66.1094 29.0859C66.9375 30.3516 68.1406 30.9844 69.7188 30.9844C71.8125 30.9844 73.2891 30.1016 74.1484 28.3359V18.3281C73.3047 16.5625 71.8438 15.6797 69.7656 15.6797C66.5 15.6797 64.8672 18.3281 64.8672 23.625ZM97.8672 36.4688C94.1484 36.4688 91.1172 35.3281 88.7734 33.0469C86.4453 30.7656 85.2812 27.7266 85.2812 23.9297V23.2734C85.2812 20.7266 85.7734 18.4531 86.7578 16.4531C87.7422 14.4375 89.1328 12.8906 90.9297 11.8125C92.7422 10.7188 94.8047 10.1719 97.1172 10.1719C100.586 10.1719 103.312 11.2656 105.297 13.4531C107.297 15.6406 108.297 18.7422 108.297 22.7578V25.5234H92.1484C92.3672 27.1797 93.0234 28.5078 94.1172 29.5078C95.2266 30.5078 96.625 31.0078 98.3125 31.0078C100.922 31.0078 102.961 30.0625 104.43 28.1719L107.758 31.8984C106.742 33.3359 105.367 34.4609 103.633 35.2734C101.898 36.0703 99.9766 36.4688 97.8672 36.4688ZM97.0938 15.6562C95.75 15.6562 94.6562 16.1094 93.8125 17.0156C92.9844 17.9219 92.4531 19.2188 92.2188 20.9062H101.641V20.3672C101.609 18.8672 101.203 17.7109 100.422 16.8984C99.6406 16.0703 98.5312 15.6562 97.0938 15.6562ZM123.836 36.4688C120.117 36.4688 117.086 35.3281 114.742 33.0469C112.414 30.7656 111.25 27.7266 111.25 23.9297V23.2734C111.25 20.7266 111.742 18.4531 112.727 16.4531C113.711 14.4375 115.102 12.8906 116.898 11.8125C118.711 10.7188 120.773 10.1719 123.086 10.1719C126.555 10.1719 129.281 11.2656 131.266 13.4531C133.266 15.6406 134.266 18.7422 134.266 22.7578V25.5234H118.117C118.336 27.1797 118.992 28.5078 120.086 29.5078C121.195 30.5078 122.594 31.0078 124.281 31.0078C126.891 31.0078 128.93 30.0625 130.398 28.1719L133.727 31.8984C132.711 33.3359 131.336 34.4609 129.602 35.2734C127.867 36.0703 125.945 36.4688 123.836 36.4688ZM123.062 15.6562C121.719 15.6562 120.625 16.1094 119.781 17.0156C118.953 17.9219 118.422 19.2188 118.188 20.9062H127.609V20.3672C127.578 18.8672 127.172 17.7109 126.391 16.8984C125.609 16.0703 124.5 15.6562 123.062 15.6562ZM144.367 10.6406L144.578 13.5703C146.391 11.3047 148.82 10.1719 151.867 10.1719C154.555 10.1719 156.555 10.9609 157.867 12.5391C159.18 14.1172 159.852 16.4766 159.883 19.6172V36H153.109V19.7812C153.109 18.3438 152.797 17.3047 152.172 16.6641C151.547 16.0078 150.508 15.6797 149.055 15.6797C147.148 15.6797 145.719 16.4922 144.766 18.1172V36H137.992V10.6406H144.367ZM163.984 23.1328C163.984 19.1797 164.867 16.0312 166.633 13.6875C168.414 11.3438 170.844 10.1719 173.922 10.1719C176.391 10.1719 178.43 11.0938 180.039 12.9375V0H186.836V36H180.719L180.391 33.3047C178.703 35.4141 176.531 36.4688 173.875 36.4688C170.891 36.4688 168.492 35.2969 166.68 32.9531C164.883 30.5938 163.984 27.3203 163.984 23.1328ZM170.758 23.625C170.758 26 171.172 27.8203 172 29.0859C172.828 30.3516 174.031 30.9844 175.609 30.9844C177.703 30.9844 179.18 30.1016 180.039 28.3359V18.3281C179.195 16.5625 177.734 15.6797 175.656 15.6797C172.391 15.6797 170.758 18.3281 170.758 23.625Z" fill="black"/>
</svg>
